<mxfile host="Electron" agent="Mozilla/5.0 (Windows NT 10.0; Win64; x64) AppleWebKit/537.36 (KHTML, like Gecko) draw.io/24.7.8 Chrome/128.0.6613.36 Electron/32.0.1 Safari/537.36" version="24.7.8">
  <diagram name="Page-1" id="TrMdBthAK92nu3Ebh9l5">
    <mxGraphModel dx="3725" dy="1553" grid="1" gridSize="10" guides="1" tooltips="1" connect="1" arrows="1" fold="1" page="1" pageScale="1" pageWidth="1100" pageHeight="850" background="#ffffff" math="0" shadow="0">
      <root>
        <mxCell id="0" />
        <mxCell id="1" parent="0" />
        <mxCell id="WThMzC5Q3YbPMqEr0HX_-1" value="&lt;font&gt;STUDENT&lt;/font&gt;" style="rounded=0;whiteSpace=wrap;html=1;fillColor=none;strokeColor=#000000;strokeWidth=2;fontColor=#000000;" parent="1" vertex="1">
          <mxGeometry x="-48" y="415" width="120" height="60" as="geometry" />
        </mxCell>
        <mxCell id="WThMzC5Q3YbPMqEr0HX_-3" value="&lt;font&gt;CAMERA&lt;/font&gt;" style="rounded=0;whiteSpace=wrap;html=1;fillColor=none;strokeColor=#000000;strokeWidth=2;fontColor=#000000;" parent="1" vertex="1">
          <mxGeometry x="170" y="414" width="120" height="60" as="geometry" />
        </mxCell>
        <mxCell id="WThMzC5Q3YbPMqEr0HX_-5" value="PREDICT EMOTION" style="rounded=0;whiteSpace=wrap;html=1;fillColor=none;strokeColor=#000000;strokeWidth=2;fontColor=#000000;" parent="1" vertex="1">
          <mxGeometry x="397" y="327" width="120" height="50" as="geometry" />
        </mxCell>
        <mxCell id="WThMzC5Q3YbPMqEr0HX_-6" value="EYE STATE DETECTION" style="rounded=0;whiteSpace=wrap;html=1;fillColor=none;strokeColor=#000000;strokeWidth=2;fontColor=#000000;" parent="1" vertex="1">
          <mxGeometry x="405" y="422" width="120" height="42" as="geometry" />
        </mxCell>
        <mxCell id="WThMzC5Q3YbPMqEr0HX_-7" value="&lt;font&gt;ANALYSIS&lt;/font&gt;" style="rounded=0;whiteSpace=wrap;html=1;fillColor=none;strokeColor=#000000;strokeWidth=2;fontColor=#000000;" parent="1" vertex="1">
          <mxGeometry x="617" y="408" width="120" height="60" as="geometry" />
        </mxCell>
        <mxCell id="WThMzC5Q3YbPMqEr0HX_-8" value="VGG-16 MODEL" style="rounded=0;whiteSpace=wrap;html=1;fillColor=none;strokeColor=#000000;strokeWidth=2;fontColor=#000000;" parent="1" vertex="1">
          <mxGeometry x="400" y="257" width="120" height="40" as="geometry" />
        </mxCell>
        <mxCell id="WThMzC5Q3YbPMqEr0HX_-9" value="HEAD POSE DETECTION" style="rounded=0;whiteSpace=wrap;html=1;fillColor=none;strokeColor=#000000;strokeWidth=2;fontColor=#000000;" parent="1" vertex="1">
          <mxGeometry x="407" y="528" width="120" height="40" as="geometry" />
        </mxCell>
        <mxCell id="WThMzC5Q3YbPMqEr0HX_-11" value="&lt;font&gt;TRAIN&lt;/font&gt;" style="rounded=0;whiteSpace=wrap;html=1;fillColor=none;strokeColor=#000000;strokeWidth=2;fontColor=#000000;" parent="1" vertex="1">
          <mxGeometry x="560" y="126" width="120" height="35" as="geometry" />
        </mxCell>
        <mxCell id="WThMzC5Q3YbPMqEr0HX_-12" value="&lt;font&gt;TEST&lt;/font&gt;" style="rounded=0;whiteSpace=wrap;html=1;fillColor=none;strokeColor=#000000;strokeWidth=2;fontColor=#000000;" parent="1" vertex="1">
          <mxGeometry x="230" y="119" width="120" height="40" as="geometry" />
        </mxCell>
        <mxCell id="WThMzC5Q3YbPMqEr0HX_-13" value="&lt;font&gt;CNN&lt;/font&gt;" style="rounded=0;whiteSpace=wrap;html=1;fillColor=none;strokeColor=#000000;strokeWidth=2;fontColor=#000000;" parent="1" vertex="1">
          <mxGeometry x="400" y="198" width="120" height="42" as="geometry" />
        </mxCell>
        <mxCell id="WThMzC5Q3YbPMqEr0HX_-27" style="edgeStyle=orthogonalEdgeStyle;rounded=0;orthogonalLoop=1;jettySize=auto;html=1;exitX=0.5;exitY=1;exitDx=0;exitDy=0;entryX=0.5;entryY=0;entryDx=0;entryDy=0;strokeColor=#000000;strokeWidth=2;fontColor=#000000;" parent="1" source="WThMzC5Q3YbPMqEr0HX_-14" target="WThMzC5Q3YbPMqEr0HX_-12" edge="1">
          <mxGeometry relative="1" as="geometry">
            <Array as="points">
              <mxPoint x="460" y="100" />
              <mxPoint x="290" y="100" />
            </Array>
          </mxGeometry>
        </mxCell>
        <mxCell id="WThMzC5Q3YbPMqEr0HX_-14" value="&lt;font&gt;DATASET&lt;/font&gt;&lt;span style=&quot;font-family: monospace; font-size: 0px; text-align: start; text-wrap: nowrap;&quot;&gt;%3CmxGraphModel%3E%3Croot%3E%3CmxCell%20id%3D%220%22%2F%3E%3CmxCell%20id%3D%221%22%20parent%3D%220%22%2F%3E%3CmxCell%20id%3D%222%22%20value%3D%22%26lt%3Bfont%20color%3D%26quot%3B%23ffffff%26quot%3B%26gt%3BS%26lt%3B%2Ffont%26gt%3B%22%20style%3D%22rounded%3D0%3BwhiteSpace%3Dwrap%3Bhtml%3D1%3BfillColor%3Dnone%3BstrokeColor%3D%23FFFFFF%3BstrokeWidth%3D2%3B%22%20vertex%3D%221%22%20parent%3D%221%22%3E%3CmxGeometry%20x%3D%22100%22%20y%3D%22200%22%20width%3D%22120%22%20height%3D%2260%22%20as%3D%22geometry%22%2F%3E%3C%2FmxCell%3E%3C%2Froot%3E%3C%2FmxGraphModel%3E&lt;/span&gt;&lt;span style=&quot;font-family: monospace; font-size: 0px; text-align: start; text-wrap: nowrap;&quot;&gt;%3CmxGraphModel%3E%3Croot%3E%3CmxCell%20id%3D%220%22%2F%3E%3CmxCell%20id%3D%221%22%20parent%3D%220%22%2F%3E%3CmxCell%20id%3D%222%22%20value%3D%22%26lt%3Bfont%20color%3D%26quot%3B%23ffffff%26quot%3B%26gt%3BS%26lt%3B%2Ffont%26gt%3B%22%20style%3D%22rounded%3D0%3BwhiteSpace%3Dwrap%3Bhtml%3D1%3BfillColor%3Dnone%3BstrokeColor%3D%23FFFFFF%3BstrokeWidth%3D2%3B%22%20vertex%3D%221%22%20parent%3D%221%22%3E%3CmxGeometry%20x%3D%22100%22%20y%3D%22200%22%20width%3D%22120%22%20height%3D%2260%22%20as%3D%22geometry%22%2F%3E%3C%2FmxCell%3E%3C%2Froot%3E%3C%2FmxGraphModel%3E&lt;/span&gt;" style="rounded=0;whiteSpace=wrap;html=1;fillColor=none;strokeColor=#000000;strokeWidth=2;fontColor=#000000;" parent="1" vertex="1">
          <mxGeometry x="400" y="51" width="120" height="26" as="geometry" />
        </mxCell>
        <mxCell id="WThMzC5Q3YbPMqEr0HX_-19" value="&lt;font&gt;REPORT&lt;/font&gt;" style="rounded=0;whiteSpace=wrap;html=1;fillColor=none;strokeColor=#000000;strokeWidth=2;fontColor=#000000;" parent="1" vertex="1">
          <mxGeometry x="828" y="408" width="120" height="60" as="geometry" />
        </mxCell>
        <mxCell id="WThMzC5Q3YbPMqEr0HX_-20" value="&lt;font&gt;TEACHER&lt;/font&gt;" style="rounded=0;whiteSpace=wrap;html=1;fillColor=none;strokeColor=#000000;strokeWidth=2;fontColor=#000000;" parent="1" vertex="1">
          <mxGeometry x="1029" y="409" width="120" height="60" as="geometry" />
        </mxCell>
        <mxCell id="WThMzC5Q3YbPMqEr0HX_-30" value="" style="endArrow=classic;html=1;rounded=0;strokeColor=#000000;strokeWidth=2;entryX=0.5;entryY=0;entryDx=0;entryDy=0;fontColor=#000000;" parent="1" target="WThMzC5Q3YbPMqEr0HX_-11" edge="1">
          <mxGeometry width="50" height="50" relative="1" as="geometry">
            <mxPoint x="460" y="100" as="sourcePoint" />
            <mxPoint x="640" as="targetPoint" />
            <Array as="points">
              <mxPoint x="620" y="100" />
            </Array>
          </mxGeometry>
        </mxCell>
        <mxCell id="WThMzC5Q3YbPMqEr0HX_-33" value="" style="endArrow=classic;html=1;rounded=0;strokeColor=#000000;strokeWidth=2;entryX=0.5;entryY=0;entryDx=0;entryDy=0;exitX=0.5;exitY=1;exitDx=0;exitDy=0;fontColor=#000000;" parent="1" edge="1">
          <mxGeometry width="50" height="50" relative="1" as="geometry">
            <mxPoint x="290" y="174" as="sourcePoint" />
            <mxPoint x="440" y="198" as="targetPoint" />
            <Array as="points">
              <mxPoint x="290" y="160" />
              <mxPoint x="290" y="176" />
              <mxPoint x="440" y="178" />
            </Array>
          </mxGeometry>
        </mxCell>
        <mxCell id="WThMzC5Q3YbPMqEr0HX_-34" value="" style="endArrow=classic;html=1;rounded=0;strokeColor=#000000;strokeWidth=2;entryX=0.594;entryY=0.025;entryDx=0;entryDy=0;entryPerimeter=0;fontColor=#000000;" parent="1" edge="1">
          <mxGeometry width="50" height="50" relative="1" as="geometry">
            <mxPoint x="620" y="160" as="sourcePoint" />
            <mxPoint x="471.2800000000002" y="199.80000000000018" as="targetPoint" />
            <Array as="points">
              <mxPoint x="620" y="180" />
              <mxPoint x="470" y="180" />
            </Array>
          </mxGeometry>
        </mxCell>
        <mxCell id="WThMzC5Q3YbPMqEr0HX_-36" value="" style="endArrow=classic;html=1;rounded=0;strokeColor=#000000;strokeWidth=2;entryX=0.5;entryY=0;entryDx=0;entryDy=0;exitX=0.5;exitY=1;exitDx=0;exitDy=0;fontColor=#000000;" parent="1" source="WThMzC5Q3YbPMqEr0HX_-13" target="WThMzC5Q3YbPMqEr0HX_-8" edge="1">
          <mxGeometry width="50" height="50" relative="1" as="geometry">
            <mxPoint x="460" y="205" as="sourcePoint" />
            <mxPoint x="620" y="225" as="targetPoint" />
            <Array as="points" />
          </mxGeometry>
        </mxCell>
        <mxCell id="WThMzC5Q3YbPMqEr0HX_-39" value="" style="endArrow=classic;html=1;rounded=0;strokeColor=#000000;strokeWidth=2;entryX=0.648;entryY=1.002;entryDx=0;entryDy=0;exitX=0.677;exitY=-0.005;exitDx=0;exitDy=0;entryPerimeter=0;exitPerimeter=0;fontColor=#000000;" parent="1" source="WThMzC5Q3YbPMqEr0HX_-5" target="WThMzC5Q3YbPMqEr0HX_-8" edge="1">
          <mxGeometry width="50" height="50" relative="1" as="geometry">
            <mxPoint x="660" y="225" as="sourcePoint" />
            <mxPoint x="660" y="258" as="targetPoint" />
            <Array as="points" />
          </mxGeometry>
        </mxCell>
        <mxCell id="WThMzC5Q3YbPMqEr0HX_-41" value="" style="endArrow=classic;html=1;rounded=0;strokeColor=#000000;strokeWidth=2;entryX=0.5;entryY=0;entryDx=0;entryDy=0;exitX=0.327;exitY=0.992;exitDx=0;exitDy=0;exitPerimeter=0;fontColor=#000000;" parent="1" source="WThMzC5Q3YbPMqEr0HX_-8" edge="1">
          <mxGeometry width="50" height="50" relative="1" as="geometry">
            <mxPoint x="440" y="300" as="sourcePoint" />
            <mxPoint x="440" y="327" as="targetPoint" />
            <Array as="points" />
          </mxGeometry>
        </mxCell>
        <mxCell id="WThMzC5Q3YbPMqEr0HX_-47" value="" style="endArrow=classic;html=1;rounded=0;strokeColor=#000000;strokeWidth=2;entryX=0;entryY=0.5;entryDx=0;entryDy=0;exitX=1;exitY=0.5;exitDx=0;exitDy=0;fontColor=#000000;" parent="1" source="WThMzC5Q3YbPMqEr0HX_-1" target="WThMzC5Q3YbPMqEr0HX_-3" edge="1">
          <mxGeometry width="50" height="50" relative="1" as="geometry">
            <mxPoint x="110" y="436" as="sourcePoint" />
            <mxPoint x="110" y="469" as="targetPoint" />
            <Array as="points" />
          </mxGeometry>
        </mxCell>
        <mxCell id="WThMzC5Q3YbPMqEr0HX_-49" value="" style="endArrow=classic;html=1;rounded=0;strokeColor=#000000;strokeWidth=2;entryX=0;entryY=0.5;entryDx=0;entryDy=0;fontColor=#000000;" parent="1" target="WThMzC5Q3YbPMqEr0HX_-5" edge="1">
          <mxGeometry width="50" height="50" relative="1" as="geometry">
            <mxPoint x="290" y="444" as="sourcePoint" />
            <mxPoint x="390" y="350" as="targetPoint" />
            <Array as="points" />
          </mxGeometry>
        </mxCell>
        <mxCell id="WThMzC5Q3YbPMqEr0HX_-51" value="" style="endArrow=classic;html=1;rounded=0;strokeColor=#000000;strokeWidth=2;entryX=0;entryY=0.5;entryDx=0;entryDy=0;exitX=1;exitY=0.5;exitDx=0;exitDy=0;fontColor=#000000;" parent="1" source="WThMzC5Q3YbPMqEr0HX_-3" target="WThMzC5Q3YbPMqEr0HX_-6" edge="1">
          <mxGeometry width="50" height="50" relative="1" as="geometry">
            <mxPoint x="290" y="534.9999999999998" as="sourcePoint" />
            <mxPoint x="330" y="580" as="targetPoint" />
            <Array as="points" />
          </mxGeometry>
        </mxCell>
        <mxCell id="WThMzC5Q3YbPMqEr0HX_-63" value="" style="endArrow=classic;html=1;rounded=0;strokeColor=#000000;strokeWidth=2;entryX=0;entryY=0.5;entryDx=0;entryDy=0;exitX=1;exitY=0.5;exitDx=0;exitDy=0;fontColor=#000000;" parent="1" source="WThMzC5Q3YbPMqEr0HX_-7" target="WThMzC5Q3YbPMqEr0HX_-19" edge="1">
          <mxGeometry width="50" height="50" relative="1" as="geometry">
            <mxPoint x="910.48" y="130" as="sourcePoint" />
            <mxPoint x="910" y="380" as="targetPoint" />
            <Array as="points" />
          </mxGeometry>
        </mxCell>
        <mxCell id="WThMzC5Q3YbPMqEr0HX_-64" value="" style="endArrow=classic;html=1;rounded=0;strokeColor=#000000;strokeWidth=2;entryX=0;entryY=0.5;entryDx=0;entryDy=0;exitX=1;exitY=0.5;exitDx=0;exitDy=0;fontColor=#000000;" parent="1" source="WThMzC5Q3YbPMqEr0HX_-19" target="WThMzC5Q3YbPMqEr0HX_-20" edge="1">
          <mxGeometry width="50" height="50" relative="1" as="geometry">
            <mxPoint x="920.48" y="140" as="sourcePoint" />
            <mxPoint x="920" y="390" as="targetPoint" />
            <Array as="points" />
          </mxGeometry>
        </mxCell>
        <mxCell id="WThMzC5Q3YbPMqEr0HX_-70" value="" style="endArrow=classic;html=1;rounded=0;strokeColor=#000000;strokeWidth=2;entryX=0;entryY=0.5;entryDx=0;entryDy=0;exitX=1;exitY=0.5;exitDx=0;exitDy=0;fontColor=#000000;" parent="1" source="WThMzC5Q3YbPMqEr0HX_-5" target="WThMzC5Q3YbPMqEr0HX_-7" edge="1">
          <mxGeometry width="50" height="50" relative="1" as="geometry">
            <mxPoint x="930.48" y="150" as="sourcePoint" />
            <mxPoint x="930" y="400" as="targetPoint" />
            <Array as="points" />
          </mxGeometry>
        </mxCell>
        <mxCell id="WThMzC5Q3YbPMqEr0HX_-71" value="" style="endArrow=classic;html=1;rounded=0;strokeColor=#000000;strokeWidth=2;exitX=1;exitY=0.5;exitDx=0;exitDy=0;entryX=0;entryY=0.5;entryDx=0;entryDy=0;fontColor=#000000;" parent="1" source="WThMzC5Q3YbPMqEr0HX_-6" target="WThMzC5Q3YbPMqEr0HX_-7" edge="1">
          <mxGeometry width="50" height="50" relative="1" as="geometry">
            <mxPoint x="940.48" y="160" as="sourcePoint" />
            <mxPoint x="610" y="440" as="targetPoint" />
            <Array as="points" />
          </mxGeometry>
        </mxCell>
        <mxCell id="WThMzC5Q3YbPMqEr0HX_-73" value="" style="endArrow=classic;html=1;rounded=0;strokeColor=#000000;strokeWidth=2;entryX=0.421;entryY=-0.027;entryDx=0;entryDy=0;exitX=0.426;exitY=-0.069;exitDx=0;exitDy=0;exitPerimeter=0;entryPerimeter=0;fontColor=#000000;" parent="1" source="WThMzC5Q3YbPMqEr0HX_-19" target="WThMzC5Q3YbPMqEr0HX_-1" edge="1">
          <mxGeometry width="50" height="50" relative="1" as="geometry">
            <mxPoint x="950.48" y="170" as="sourcePoint" />
            <mxPoint x="950" y="420" as="targetPoint" />
            <Array as="points">
              <mxPoint x="880" y="30" />
              <mxPoint x="450" y="30" />
              <mxPoint x="3" y="30" />
            </Array>
          </mxGeometry>
        </mxCell>
        <mxCell id="WThMzC5Q3YbPMqEr0HX_-75" value="" style="endArrow=classic;html=1;rounded=0;strokeColor=#000000;strokeWidth=2;entryX=0.442;entryY=1.05;entryDx=0;entryDy=0;entryPerimeter=0;exitX=0.655;exitY=0.99;exitDx=0;exitDy=0;exitPerimeter=0;fontColor=#000000;" parent="1" edge="1">
          <mxGeometry width="50" height="50" relative="1" as="geometry">
            <mxPoint x="694.5999999999995" y="467.39999999999986" as="sourcePoint" />
            <mxPoint x="4.040000000000418" y="478" as="targetPoint" />
            <Array as="points">
              <mxPoint x="695" y="640" />
              <mxPoint x="4" y="640" />
            </Array>
          </mxGeometry>
        </mxCell>
        <mxCell id="WThMzC5Q3YbPMqEr0HX_-81" value="REPORT VIEW" style="text;html=1;align=center;verticalAlign=middle;whiteSpace=wrap;rounded=0;fontColor=#000000;strokeColor=#FFFFFF;" parent="1" vertex="1">
          <mxGeometry x="888" y="198" width="60" height="30" as="geometry" />
        </mxCell>
        <mxCell id="WThMzC5Q3YbPMqEr0HX_-83" value="INPUT" style="text;html=1;align=center;verticalAlign=middle;whiteSpace=wrap;rounded=0;fontColor=#000000;rotation=0;strokeColor=#FFFFFF;" parent="1" vertex="1">
          <mxGeometry x="90" y="408" width="60" height="30" as="geometry" />
        </mxCell>
        <mxCell id="WThMzC5Q3YbPMqEr0HX_-84" value="OUTPUT" style="text;html=1;align=center;verticalAlign=middle;whiteSpace=wrap;rounded=0;fontColor=#000000;strokeColor=#FFFFFF;" parent="1" vertex="1">
          <mxGeometry x="750" y="408" width="60" height="30" as="geometry" />
        </mxCell>
        <mxCell id="eq0ydE6geIgscf3Q9lP0-2" value="" style="endArrow=classic;html=1;rounded=0;strokeColor=#000000;strokeWidth=2;entryX=0.013;entryY=0.652;entryDx=0;entryDy=0;exitX=1;exitY=0.5;exitDx=0;exitDy=0;entryPerimeter=0;fontColor=#000000;" parent="1" source="WThMzC5Q3YbPMqEr0HX_-3" target="WThMzC5Q3YbPMqEr0HX_-9" edge="1">
          <mxGeometry width="50" height="50" relative="1" as="geometry">
            <mxPoint x="286" y="520" as="sourcePoint" />
            <mxPoint x="397" y="612" as="targetPoint" />
            <Array as="points" />
          </mxGeometry>
        </mxCell>
        <mxCell id="eq0ydE6geIgscf3Q9lP0-3" value="" style="endArrow=classic;html=1;rounded=0;strokeColor=#000000;strokeWidth=2;entryX=0;entryY=0.5;entryDx=0;entryDy=0;exitX=1;exitY=0.5;exitDx=0;exitDy=0;fontColor=#000000;" parent="1" source="WThMzC5Q3YbPMqEr0HX_-9" target="WThMzC5Q3YbPMqEr0HX_-7" edge="1">
          <mxGeometry width="50" height="50" relative="1" as="geometry">
            <mxPoint x="540" y="642" as="sourcePoint" />
            <mxPoint x="659" y="850" as="targetPoint" />
            <Array as="points" />
          </mxGeometry>
        </mxCell>
      </root>
    </mxGraphModel>
  </diagram>
</mxfile>
